<svg xmlns="http://www.w3.org/2000/svg" width="36px" height="36px" viewBox="0 0 35.95 35.95"><defs><style>.cls-1{fill:#e21322;}.cls-2{fill:#fff;}</style></defs><g id="Layer_2" data-name="Layer 2"><g id="Layer_1-2" data-name="Layer 1"><circle id="Oval" class="cls-1" cx="17.98" cy="17.98" r="17.98"/><path class="cls-2" d="M16.86,23.11h-2a.43.43,0,0,1-.38-.2L10.6,16.69v6a.42.42,0,0,1-.44.4H8.32a.42.42,0,0,1-.44-.4V13.19a.42.42,0,0,1,.44-.4h2a.47.47,0,0,1,.39.2l3.86,6.22v-6a.42.42,0,0,1,.44-.4h1.83a.42.42,0,0,1,.44.4v9.52A.42.42,0,0,1,16.86,23.11Z"/><path class="cls-2" d="M23.21,19.46H21.74v3.23a.44.44,0,0,1-.46.42h-1.8a.45.45,0,0,1-.46-.42V13.21a.45.45,0,0,1,.46-.42h4a5.3,5.3,0,0,1,3.14.81,2.69,2.69,0,0,1,1.13,2.31,3.19,3.19,0,0,1-.47,1.78,3.34,3.34,0,0,1-1.5,1.15l.11.19.29.5.4.71L27,21l.44.78.37.66.24.43s.06.07.06.11v.09H25.5a.48.48,0,0,1-.42-.23Zm-1.47-1.91h1.72a1.63,1.63,0,0,0,1.17-.38,1.36,1.36,0,0,0,.39-1,1.39,1.39,0,0,0-.4-1,1.62,1.62,0,0,0-1.16-.38H21.74Z"/></g></g></svg>